<?xml version="1.0" standalone="no"?>
<!DOCTYPE svg PUBLIC "-//W3C//DTD SVG 20010904//EN"
 "http://www.w3.org/TR/2001/REC-SVG-20010904/DTD/svg10.dtd">
<svg version="1.0" xmlns="http://www.w3.org/2000/svg"
 width="1280.000000pt" height="1061.000000pt" viewBox="0 0 1280.000000 1061.000000"
 preserveAspectRatio="xMidYMid meet">

<g transform="translate(0.000000,1061.000000) scale(0.100000,-0.100000)"
fill="#000000" stroke="none">
<path d="M0 8470 l0 -2140 599 0 598 0 17 83 c72 344 214 776 357 1085 21 47
39 90 39 96 -1 6 -101 71 -223 145 -562 340 -682 416 -737 472 -61 61 -112
154 -130 234 -18 80 -14 229 10 320 104 406 462 893 782 1064 98 53 176 74
273 75 116 1 200 -28 311 -107 70 -49 635 -478 815 -619 l37 -28 88 81 c476
437 1040 785 1672 1030 478 185 1062 310 1587 338 77 5 -1263 9 -2977 10
l-3118 1 0 -2140z"/>
<path d="M6710 10599 c1021 -58 2015 -417 2835 -1024 133 -99 299 -235 419
-343 76 -69 91 -79 105 -69 9 7 190 144 401 306 211 161 415 315 454 342 172
116 355 125 550 27 316 -157 691 -663 796 -1073 24 -91 28 -240 10 -320 -18
-80 -69 -173 -130 -234 -53 -54 -287 -203 -802 -512 -86 -52 -157 -99 -158
-105 0 -6 18 -49 39 -96 141 -304 274 -708 352 -1065 l22 -103 599 0 598 0 0
2140 0 2140 -3117 -1 c-1751 -1 -3054 -6 -2973 -10z"/>
<path d="M6015 10430 c-538 -44 -1051 -163 -1540 -359 -179 -72 -543 -253
-700 -348 -341 -207 -647 -440 -901 -686 l-111 -107 -304 233 c-537 411 -678
516 -732 544 -45 24 -63 28 -142 28 -81 0 -97 -3 -159 -33 -193 -91 -432 -342
-578 -609 -201 -366 -230 -600 -92 -752 46 -52 63 -63 619 -401 248 -150 452
-274 454 -276 2 -2 -20 -52 -49 -111 -183 -377 -323 -787 -408 -1203 l-39
-185 -545 -3 -546 -2 209 -557 c115 -306 209 -563 209 -571 0 -9 -93 -263
-206 -566 -114 -303 -209 -557 -211 -563 -4 -10 124 -13 607 -15 l611 -3 63
-191 c509 -1536 1733 -2760 3266 -3263 865 -283 1781 -333 2681 -146 1311 274
2486 1081 3232 2220 242 370 428 756 571 1185 l65 195 612 3 c482 2 610 5 606
15 -2 6 -97 260 -211 563 -113 303 -206 557 -206 566 0 8 94 265 209 571 l209
557 -546 2 -546 3 -14 70 c-92 478 -224 883 -414 1277 -39 82 -70 149 -67 151
2 2 114 70 249 152 623 377 778 475 819 521 144 155 117 387 -87 757 -110 201
-319 445 -466 546 -131 90 -262 121 -367 87 -70 -23 -95 -41 -623 -445 l-459
-351 -112 108 c-206 200 -460 401 -725 574 -682 445 -1432 712 -2260 804 -170
18 -754 27 -925 14z m661 -281 c969 -56 1885 -394 2654 -978 104 -79 298 -243
404 -342 l78 -74 -532 -410 c-293 -225 -539 -414 -546 -418 -9 -5 -42 16 -101
65 -519 431 -1121 693 -1808 785 -184 24 -667 24 -849 0 -687 -93 -1292 -355
-1809 -785 -58 -49 -92 -70 -101 -65 -7 4 -253 193 -546 418 l-532 410 78 74
c985 924 2282 1399 3610 1320z m-5056 -634 c0 -29 -73 -218 -118 -307 -79
-154 -145 -251 -317 -466 -81 -101 -146 -184 -144 -186 2 -1 42 -10 89 -20
136 -28 403 -121 544 -191 137 -66 340 -181 536 -302 63 -40 117 -70 119 -68
8 9 -77 122 -154 203 -92 98 -240 220 -370 304 -49 32 -85 58 -80 58 27 0 210
-55 290 -87 219 -87 255 -110 1355 -864 421 -289 794 -545 830 -570 35 -24 67
-46 71 -49 3 -3 -2 -54 -12 -115 -10 -60 -21 -172 -25 -247 -4 -76 -8 -138
-10 -138 -6 0 -2698 1629 -3062 1854 -281 172 -272 163 -272 271 0 146 129
417 295 620 163 199 298 304 393 305 23 0 42 -2 42 -5z m9697 -22 c106 -52
329 -290 420 -448 119 -205 173 -347 173 -450 0 -82 -14 -109 -83 -154 -54
-36 -823 -505 -1332 -813 -159 -96 -656 -396 -1102 -667 -447 -270 -815 -491
-816 -491 -2 0 -7 62 -11 138 -4 75 -15 187 -25 247 -10 61 -18 110 -17 111
84 61 1714 1177 1848 1265 163 107 277 168 413 222 80 32 263 87 290 87 5 0
-31 -26 -80 -58 -128 -83 -280 -208 -372 -306 -75 -81 -160 -192 -152 -200 2
-3 88 47 191 109 240 147 438 254 572 310 131 55 327 118 438 141 46 10 85 19
87 20 2 2 -63 86 -144 186 -166 207 -231 302 -309 450 -49 92 -102 225 -120
301 -6 26 -5 27 34 27 25 0 64 -11 97 -27z m-4587 -1072 c405 -71 766 -263
1056 -563 308 -318 489 -706 535 -1147 13 -126 8 -352 -11 -473 l-12 -78
-1898 0 -1898 0 -12 78 c-42 271 -15 597 72 872 221 693 852 1225 1563 1319
44 6 94 13 110 15 76 11 385 -3 495 -23z m-1725 -243 c-161 -136 -305 -300
-418 -475 -45 -70 -77 -111 -85 -108 -22 8 -191 139 -189 147 4 15 189 155
322 244 113 75 394 233 415 234 3 0 -17 -19 -45 -42z m3026 -107 c160 -94 460
-311 459 -331 -1 -7 -188 -150 -198 -150 -4 0 -27 33 -52 72 -105 171 -292
388 -445 517 l-50 42 101 -50 c56 -28 140 -73 185 -100z m-5376 -906 c308
-186 566 -343 573 -349 10 -10 3 -35 -37 -127 -61 -142 -103 -260 -146 -409
l-33 -115 -691 -3 c-688 -2 -691 -2 -691 18 0 63 88 412 157 625 83 257 279
714 300 702 4 -2 260 -156 568 -342z m8130 213 c118 -246 228 -545 304 -828
31 -118 81 -347 81 -374 0 -15 -69 -16 -691 -14 l-691 3 -33 115 c-40 138
-103 313 -157 434 -24 52 -36 92 -31 97 9 9 1145 698 1151 699 2 0 32 -60 67
-132z m-6542 -1176 c48 -41 40 -42 -458 -42 -390 0 -475 2 -475 13 0 33 127
383 166 458 l14 28 368 -221 c202 -122 375 -228 385 -236z m5112 358 c40 -94
135 -365 135 -386 0 -12 -80 -14 -475 -14 -412 0 -475 2 -475 15 0 18 -17 7
409 266 196 119 359 214 363 210 4 -3 23 -44 43 -91z m-8025 -1187 c0 -5 -16
-35 -35 -68 l-34 -60 -101 4 -100 3 0 -86 0 -86 55 0 c47 0 60 4 82 26 14 14
26 24 28 22 1 -2 -7 -31 -17 -65 l-19 -63 -64 0 -65 0 0 -100 0 -100 68 0 c77
0 119 20 148 69 10 17 22 31 27 31 9 0 8 -4 -27 -108 l-23 -67 -189 -2 c-143
-2 -184 0 -169 8 53 30 55 36 55 297 l0 243 -26 24 c-15 14 -32 26 -38 27 -6
1 70 4 169 7 157 6 185 9 220 27 45 24 55 27 55 17z m1074 -40 c-55 -95 -43
-88 -154 -84 l-100 3 0 -86 0 -86 54 0 c45 0 60 5 87 28 18 15 31 20 27 12 -3
-8 -13 -39 -22 -67 l-18 -53 -64 0 -64 0 0 -101 0 -101 81 4 c78 3 82 4 113
39 18 20 35 42 38 50 3 8 9 11 13 7 3 -3 -6 -45 -21 -92 l-28 -86 -186 0 -185
0 27 23 c45 38 48 53 48 282 0 236 -5 261 -57 289 -25 13 -11 14 152 18 160 3
184 5 220 24 62 33 69 29 39 -23z m2115 40 c0 -5 -17 -35 -38 -68 l-38 -60
-101 3 -102 4 0 -86 0 -86 57 0 c48 0 61 4 86 28 33 30 32 34 6 -60 l-13 -48
-68 0 -68 0 0 -100 0 -100 71 0 c82 0 119 17 152 69 31 51 32 21 2 -69 l-27
-80 -183 0 -183 0 34 34 34 34 0 237 0 237 -33 33 -33 33 175 4 c158 3 180 6
216 25 43 24 55 27 54 16z m7390 -50 c-17 -32 -36 -62 -41 -68 -5 -6 -51 -8
-108 -6 l-100 3 0 -86 0 -86 57 0 c48 0 61 4 86 28 l29 27 -8 -30 c-4 -16 -12
-46 -19 -65 -12 -35 -12 -35 -78 -38 l-67 -3 0 -101 0 -100 81 4 c78 3 82 4
113 39 18 20 35 42 38 50 3 8 9 11 13 7 3 -3 -6 -45 -21 -92 l-28 -86 -183 0
-183 0 32 29 33 29 3 229 c2 140 -1 240 -7 256 -6 15 -25 36 -42 46 l-32 19
179 4 c159 3 184 6 224 25 25 12 49 22 53 22 5 1 -6 -25 -24 -56z m-6664 -8
c22 -13 50 -37 63 -54 l23 -32 -30 -32 c-16 -18 -39 -43 -50 -57 l-20 -25 -1
43 c0 35 -6 50 -29 73 -34 34 -68 37 -103 9 -59 -46 -34 -105 60 -140 97 -36
142 -68 163 -113 25 -56 24 -102 -6 -164 -25 -56 -87 -105 -146 -118 -76 -17
-172 33 -216 110 l-21 38 49 40 c27 21 49 43 49 48 0 5 5 9 10 9 6 0 8 -20 4
-52 -5 -46 -3 -56 15 -72 11 -10 40 -21 64 -23 35 -4 48 -1 71 18 30 27 47 83
35 117 -6 16 -34 34 -86 58 -134 61 -173 103 -173 187 0 29 8 55 23 77 59 88
157 109 252 55z m2755 10 c43 -23 96 -84 85 -99 -6 -7 -25 -34 -44 -59 -19
-26 -38 -47 -41 -47 -4 0 -5 13 -2 29 2 15 -3 42 -12 59 -30 59 -82 68 -127
23 -55 -56 -28 -100 87 -141 89 -31 139 -76 152 -137 31 -146 -106 -281 -247
-243 -47 12 -114 68 -137 112 -15 29 -15 29 37 76 28 26 55 48 60 50 4 2 5
-21 2 -51 -5 -50 -3 -55 22 -75 68 -54 165 -3 165 86 0 37 -28 61 -117 102
-119 54 -166 124 -142 215 27 99 160 151 259 100z m-4029 -47 c31 -61 29 -66
-11 -43 -14 8 -51 14 -82 15 l-58 0 0 -264 0 -264 -34 -20 c-19 -11 -49 -41
-67 -66 -34 -45 -58 -61 -44 -28 33 76 34 92 35 365 l0 277 -62 0 c-46 0 -72
-6 -97 -21 -18 -11 -35 -18 -37 -16 -2 2 11 30 28 63 l31 60 185 -1 184 0 29
-57z m2393 25 c105 -74 145 -303 81 -456 -19 -46 -69 -104 -108 -124 -39 -19
-135 -20 -174 0 -50 26 -101 92 -120 154 -26 85 -23 230 7 307 26 67 83 130
132 145 56 17 137 6 182 -26z m1230 -20 c14 -29 26 -55 26 -58 0 -2 -16 3 -35
11 -19 7 -59 14 -90 14 l-55 0 0 -270 c0 -226 -2 -270 -14 -270 -8 0 -39 -28
-70 -62 -31 -34 -56 -57 -56 -52 1 5 9 34 20 64 17 49 19 84 20 323 l0 267
-63 0 c-43 0 -74 -6 -100 -20 -20 -11 -37 -18 -37 -15 0 3 13 31 29 63 l29 57
184 1 185 1 27 -54z m1289 43 c34 -14 107 -90 107 -112 0 -10 -101 -94 -114
-94 -2 0 -2 18 1 40 8 55 -16 90 -61 90 -42 0 -80 -40 -97 -103 -20 -71 -15
-215 9 -269 41 -95 129 -92 173 6 28 63 27 66 -41 66 l-60 0 0 35 0 35 103 0
102 0 0 -142 c0 -137 -1 -144 -23 -161 -12 -11 -31 -35 -42 -55 l-19 -37 -1
74 0 75 -31 -30 c-26 -25 -38 -29 -87 -29 -102 1 -166 60 -198 185 -20 77 -15
210 10 281 44 123 166 189 269 145z m2334 -7 c41 -20 93 -79 93 -106 0 -10
-99 -93 -111 -93 -2 0 -3 20 -1 46 5 52 -16 84 -55 84 -70 0 -105 -65 -111
-207 -6 -155 27 -233 99 -233 34 0 78 35 95 76 25 59 21 64 -46 64 l-60 0 0
35 0 35 103 0 104 0 -1 -117 c-1 -65 2 -129 6 -143 6 -21 2 -28 -21 -41 -15
-9 -35 -32 -45 -52 -9 -21 -19 -37 -21 -37 -3 0 -2 35 2 78 l6 77 -30 -32
c-82 -87 -231 -32 -284 106 -32 82 -32 243 0 325 52 131 168 188 278 135z
m-9587 -255 l0 -266 81 4 c78 3 82 4 113 39 18 20 35 42 38 50 3 8 9 11 13 7
3 -3 -6 -45 -21 -92 l-28 -86 -185 0 c-171 0 -184 1 -163 16 47 33 52 58 52
288 0 118 -4 226 -10 240 -5 14 -24 35 -42 46 l-33 20 93 0 92 0 0 -266z
m1055 87 c22 -99 41 -178 44 -176 2 2 20 82 40 177 l37 173 74 3 c70 3 74 2
53 -13 -28 -20 -31 -32 -99 -342 l-57 -263 -79 0 -79 0 20 26 c12 15 21 36 21
48 0 11 -23 122 -50 245 -43 196 -54 230 -80 263 l-31 38 74 0 73 0 39 -179z
m689 -113 c44 -161 81 -299 84 -305 3 -10 -18 -13 -83 -13 -84 0 -87 1 -66 18
20 16 21 20 8 87 l-13 70 -56 3 -56 3 -22 -91 c-21 -86 -24 -92 -59 -110 -21
-10 -62 -39 -93 -64 -31 -25 -58 -43 -61 -40 -3 3 12 33 33 66 55 84 72 135
126 377 41 184 46 217 37 252 l-10 39 76 0 76 0 79 -292z m2427 269 c18 -12
44 -38 57 -57 20 -30 23 -44 20 -102 -6 -108 -51 -154 -172 -171 l-76 -11 0
-124 c0 -121 -1 -124 -29 -160 -16 -20 -36 -56 -43 -80 -8 -23 -17 -39 -21
-35 -4 3 -7 163 -7 355 l0 350 -29 29 -29 29 147 0 c137 0 150 -2 182 -23z
m1149 1 c52 -36 73 -71 78 -131 6 -72 -11 -120 -55 -156 l-36 -30 37 -83 c56
-123 99 -198 146 -251 48 -54 45 -58 -13 -18 -23 15 -69 42 -102 59 -58 29
-62 33 -79 89 -10 32 -31 86 -47 121 -26 59 -29 62 -63 62 l-36 0 0 -125 0
-125 -87 0 c-87 0 -87 1 -56 16 17 9 34 25 37 37 3 12 6 129 6 260 l0 239 -29
29 -29 29 147 0 c137 0 151 -2 181 -22z m2547 -178 c29 -107 66 -243 82 -302
l29 -108 -91 1 c-74 0 -88 3 -69 11 25 13 28 39 11 118 l-11 50 -53 0 -54 0
-11 -42 c-35 -137 -38 -142 -79 -162 -21 -10 -62 -38 -90 -63 -29 -25 -54 -43
-57 -40 -3 3 11 30 31 61 57 89 71 131 125 373 47 210 51 242 34 288 -6 14 3
16 71 13 l78 -3 54 -195z m574 177 c54 -36 79 -82 79 -144 0 -67 -18 -111 -60
-146 l-32 -28 37 -82 c65 -145 149 -277 174 -277 5 0 25 31 45 69 38 73 64
164 117 404 27 125 31 155 22 188 l-10 39 76 0 76 0 79 -292 c44 -161 81 -299
84 -305 3 -10 -18 -13 -83 -13 -85 0 -87 1 -66 18 21 16 21 20 9 87 l-13 70
-56 3 -57 3 -22 -91 c-21 -86 -24 -92 -59 -110 -21 -10 -63 -39 -94 -65 -31
-25 -58 -44 -58 -41 -1 4 -2 11 -3 16 -1 14 -46 44 -127 85 -52 26 -68 40 -74
62 -3 15 -23 70 -43 121 l-36 92 -38 0 -38 0 0 -125 0 -125 -87 0 c-86 0 -87
1 -58 16 16 8 33 21 37 27 4 7 8 124 8 260 l0 249 -29 29 -29 29 147 0 c137 0
150 -2 182 -23z m-6833 -1483 c18 -37 32 -67 30 -68 -2 -2 -199 -135 -438
-296 l-435 -293 -105 -1 c-103 -1 -127 -7 -211 -53 -7 -4 -137 280 -190 412
-37 95 -72 193 -104 293 l-23 72 722 0 722 0 32 -66z m672 54 c1 -36 17 -40
57 -14 39 26 43 27 184 24 l144 -3 -135 -82 c-75 -45 -464 -309 -865 -588
l-730 -506 -6 -70 c-5 -67 -27 -117 -56 -126 -6 -2 -37 28 -68 66 l-57 71 41
69 c52 88 105 135 335 300 142 102 188 141 192 160 19 91 27 122 46 171 l22
55 8 -40 c13 -67 30 -125 37 -125 3 0 76 49 161 108 l154 108 17 74 c10 41 28
98 40 125 l22 50 8 -55 c4 -30 13 -68 18 -84 11 -28 11 -28 39 -11 73 48 288
199 294 208 3 6 9 30 13 55 4 24 9 51 12 58 7 18 73 19 73 2z m4437 -149 c226
-136 484 -303 570 -369 21 -16 21 -17 -53 -106 -41 -49 -78 -90 -83 -92 -4 -1
-197 110 -427 249 -231 138 -423 254 -429 257 -5 3 -1 -6 11 -19 20 -24 565
-630 611 -680 l24 -26 -76 -64 c-41 -35 -79 -65 -84 -67 -4 -1 -143 137 -307
307 -164 170 -300 308 -301 307 -1 -1 87 -175 197 -387 150 -290 196 -387 187
-395 -26 -23 -188 -120 -302 -180 -332 -174 -680 -285 -1076 -340 -156 -22
-633 -26 -779 -6 -516 71 -950 226 -1353 484 l-77 50 104 202 c58 110 148 284
200 385 53 102 94 186 93 187 -1 1 -136 -137 -301 -307 -164 -171 -302 -309
-307 -307 -5 2 -43 32 -84 67 l-76 64 24 26 c46 50 591 656 611 680 12 13 17
22 11 19 -5 -3 -198 -119 -429 -257 -230 -139 -423 -250 -427 -249 -5 2 -42
43 -83 92 -74 89 -74 90 -53 106 86 65 315 214 552 358 l280 171 1682 0 1682
1 268 -161z m487 135 c39 -27 55 -22 56 14 0 17 66 16 73 -2 3 -7 8 -34 12
-58 4 -25 10 -49 13 -55 6 -8 270 -193 310 -217 15 -9 31 29 41 104 l8 55 22
-50 c12 -27 30 -84 40 -124 l17 -75 154 -108 c85 -59 158 -107 161 -108 7 0
24 58 37 125 l8 40 22 -55 c12 -30 29 -86 36 -124 8 -38 18 -72 23 -76 4 -4
67 -49 138 -100 282 -202 325 -240 384 -343 l33 -58 -57 -70 c-31 -38 -62 -68
-68 -66 -29 9 -51 59 -56 127 l-6 69 -365 254 c-201 139 -527 365 -724 502
-198 138 -420 287 -494 332 -73 45 -136 84 -139 87 -4 3 59 6 138 6 139 0 146
-1 183 -26z m2181 -46 c-65 -200 -122 -346 -219 -558 -37 -79 -68 -145 -69
-147 -2 -1 -27 10 -57 25 -49 24 -67 27 -160 28 l-106 0 -79 55 c-44 31 -240
163 -435 294 -195 131 -356 239 -358 240 -2 2 12 32 30 69 l32 66 722 0 722 0
-23 -72z m-7330 -706 c71 -94 412 -434 525 -523 218 -172 401 -289 635 -406
785 -393 1687 -474 2540 -226 436 126 887 367 1240 660 167 140 446 426 527
542 11 15 21 20 30 15 7 -4 200 -137 429 -296 403 -279 417 -289 424 -325 15
-87 71 -174 147 -228 l27 -20 -97 -115 c-188 -224 -466 -494 -702 -682 -626
-499 -1384 -840 -2175 -978 -451 -78 -987 -91 -1440 -34 -969 122 -1853 522
-2605 1180 -134 117 -389 378 -507 519 l-92 110 27 20 c75 54 132 141 147 227
7 36 19 46 244 202 130 90 321 222 425 295 104 72 192 131 195 130 3 0 29 -30
56 -67z"/>
<path d="M6321 9754 c-23 -29 -27 -64 -11 -94 8 -15 6 -24 -10 -40 -46 -46
-35 -109 26 -137 33 -16 39 -16 79 -2 27 10 47 13 53 7 5 -5 24 -8 42 -6 l33
3 -26 31 -26 30 20 30 c10 16 19 35 19 42 0 20 -49 14 -62 -8 -11 -18 -14 -18
-30 -3 -17 15 -16 18 13 51 24 27 29 40 24 61 -15 63 -105 85 -144 35z m86
-40 c7 -19 -20 -49 -36 -40 -6 4 -11 18 -11 32 0 17 5 24 20 24 11 0 23 -7 27
-16z m-12 -180 c-36 -27 -66 5 -49 51 6 14 11 12 36 -12 26 -24 27 -29 13 -39z"/>
<path d="M6826 9615 c-10 -81 -16 -149 -14 -151 3 -2 39 -8 80 -14 102 -14
141 0 159 59 10 34 9 44 -3 63 -14 21 -14 27 -2 43 40 54 -1 118 -82 129 -27
4 -65 9 -85 12 l-36 5 -17 -146z m164 59 c12 -12 12 -16 -2 -30 -12 -12 -26
-14 -55 -9 -36 6 -39 8 -35 35 4 27 6 28 41 23 20 -3 43 -12 51 -19z m-16
-107 c28 -21 17 -61 -18 -65 -52 -6 -76 5 -76 37 0 15 3 31 7 34 11 12 68 8
87 -6z"/>
<path d="M5818 9743 c-10 -2 -18 -12 -18 -21 0 -26 30 -276 34 -279 1 -2 36 1
77 7 41 5 82 10 92 10 11 0 17 8 17 24 0 33 -5 34 -72 27 l-58 -7 -5 30 c-6
41 -25 197 -25 208 0 8 -13 9 -42 1z"/>
<path d="M5508 9693 c-23 -6 -23 1 8 -163 17 -89 30 -137 38 -135 6 2 46 9 89
16 43 6 80 15 82 19 2 3 1 17 -2 29 -5 18 -11 22 -32 18 -14 -3 -42 -8 -62
-12 l-36 -7 -12 74 c-31 175 -30 173 -73 161z"/>
<path d="M7220 9563 c-41 -70 -76 -133 -78 -139 -2 -6 11 -14 28 -16 26 -4 34
0 48 24 10 17 22 26 32 24 8 -3 32 -8 52 -12 33 -5 38 -11 44 -39 5 -27 12
-34 37 -39 16 -3 31 -5 32 -4 5 7 -36 303 -43 309 -4 4 -23 10 -42 14 l-35 6
-75 -128z m110 -19 c0 -40 -2 -44 -24 -44 -14 0 -28 5 -31 10 -8 13 35 91 47
84 4 -3 8 -25 8 -50z"/>
<path d="M5220 9626 c-35 -13 -35 -13 -41 -87 -16 -179 -18 -239 -9 -239 5 0
20 4 34 10 20 7 26 17 26 39 0 27 5 31 53 45 52 16 52 15 70 -9 18 -25 51 -32
74 -17 9 5 -14 47 -75 140 -48 72 -89 131 -92 131 -3 0 -21 -6 -40 -13z m71
-143 c14 -26 13 -28 -23 -37 l-28 -6 0 57 0 58 20 -25 c10 -14 25 -35 31 -47z"/>
<path d="M7595 9575 c-17 -16 -25 -35 -25 -59 0 -34 1 -36 97 -116 32 -26 20
-52 -21 -48 -22 2 -36 12 -51 35 -15 25 -26 32 -45 30 -20 -2 -24 -7 -22 -27
3 -30 44 -74 83 -90 61 -26 139 17 139 76 0 28 -39 76 -85 104 -38 23 -43 41
-20 60 21 17 61 -1 76 -33 8 -18 17 -22 38 -19 23 3 27 8 23 28 -2 13 -20 37
-39 54 -45 40 -112 42 -148 5z"/>
<path d="M4826 9505 c-38 -14 -71 -26 -73 -28 -3 -3 31 -104 83 -244 l15 -42
53 19 c29 10 67 25 84 34 66 34 81 98 35 145 -18 18 -28 39 -29 60 -3 72 -64
93 -168 56z m102 -61 c2 -17 -6 -25 -35 -37 -35 -14 -39 -14 -50 1 -20 25 -15
39 15 51 40 15 67 9 70 -15z m53 -100 c18 -22 1 -45 -45 -63 -41 -15 -51 -10
-61 30 -5 20 -2 28 17 37 34 16 74 14 89 -4z"/>
<path d="M7883 9373 l-51 -138 92 -36 c50 -20 94 -34 97 -30 4 3 10 15 13 26
5 18 -3 24 -59 45 -36 13 -65 25 -65 27 0 1 5 14 12 28 14 30 23 31 84 5 37
-16 49 -18 56 -8 19 31 8 47 -47 64 -56 18 -64 29 -45 64 10 19 12 19 74 -4
67 -25 76 -23 76 19 0 12 -145 75 -174 75 -6 0 -35 -62 -63 -137z"/>
<path d="M4535 9387 c-49 -23 -92 -42 -94 -44 -2 -2 1 -14 7 -28 12 -25 12
-25 43 -9 17 8 35 12 39 7 3 -4 27 -54 51 -110 24 -57 49 -103 55 -103 5 0 19
6 29 14 18 13 17 17 -23 108 -23 52 -44 102 -47 110 -4 10 4 19 24 28 33 13
38 27 19 52 -12 14 -23 11 -103 -25z"/>
<path d="M8237 9373 c-2 -10 -30 -71 -60 -135 l-56 -117 67 -31 c87 -41 113
-45 150 -26 33 17 57 70 46 100 -4 11 0 22 14 32 29 20 38 69 18 99 -15 22
-141 95 -165 95 -5 0 -11 -8 -14 -17z m123 -114 c0 -28 -23 -33 -62 -13 -18 9
-34 18 -36 19 -1 1 3 14 9 28 l12 26 38 -20 c26 -13 39 -26 39 -40z m-72 -69
c22 -14 32 -27 32 -45 0 -35 -22 -41 -75 -21 l-44 17 16 35 c19 39 26 41 71
14z"/>
<path d="M4245 9246 c-44 -25 -79 -48 -78 -53 3 -12 124 -236 132 -246 5 -4
20 -3 34 4 l26 12 -25 48 c-13 27 -24 51 -24 53 0 3 23 17 50 31 54 27 57 32
36 60 -13 18 -15 18 -59 -8 -25 -15 -50 -27 -55 -27 -10 0 -38 58 -31 64 2 2
24 14 49 26 65 33 71 39 59 61 -14 27 -24 24 -114 -25z"/>
<path d="M8536 9083 l-119 -107 32 -15 c30 -14 33 -14 53 7 l22 21 48 -27 c46
-25 49 -29 43 -59 -5 -27 -2 -35 20 -49 14 -9 28 -15 30 -12 4 3 65 291 65
304 0 2 -70 44 -73 43 -1 0 -55 -48 -121 -106z m111 -33 c-10 -53 -17 -57 -55
-36 l-23 12 40 37 c23 20 43 37 45 37 2 0 -1 -22 -7 -50z"/>
<path d="M3937 9066 c-52 -19 -83 -50 -103 -101 -21 -56 -5 -117 42 -162 57
-53 136 -56 201 -7 140 107 24 330 -140 270z m116 -87 c45 -49 34 -114 -25
-145 -64 -33 -138 11 -138 83 0 46 15 72 53 89 42 18 76 10 110 -27z"/>
<path d="M8842 8907 c-45 -67 -82 -125 -82 -128 0 -3 32 -28 72 -54 70 -47 94
-51 105 -18 4 10 -66 68 -91 76 -5 2 20 47 57 100 37 53 67 101 67 106 0 5
-11 16 -23 24 -24 15 -25 14 -105 -106z"/>
<path d="M3594 8831 c-36 -16 -74 -70 -74 -105 0 -34 28 -69 66 -80 11 -3 47
3 79 14 43 15 61 17 72 9 35 -30 -14 -76 -70 -65 -29 5 -35 3 -45 -19 -11 -23
-9 -26 16 -36 58 -22 138 13 162 72 17 39 5 74 -33 103 -25 19 -31 19 -75 7
-82 -24 -101 -25 -108 -7 -11 27 25 58 63 54 26 -3 34 1 43 20 6 14 9 27 6 29
-9 10 -82 12 -102 4z"/>
<path d="M9092 8735 c-46 -58 -85 -111 -88 -118 -2 -7 28 -36 67 -66 l70 -54
20 20 21 20 -51 37 c-28 21 -51 39 -51 41 0 1 34 44 75 96 69 87 73 94 58 111
-9 10 -21 18 -27 18 -6 0 -48 -47 -94 -105z"/>
<path d="M6207 5239 c-9 -5 -27 -29 -40 -52 -19 -37 -22 -57 -22 -162 0 -105
3 -126 23 -166 28 -58 67 -78 112 -59 93 38 111 340 25 426 -25 25 -67 31 -98
13z"/>
<path d="M3221 5053 c-16 -82 -16 -83 24 -83 19 0 35 2 35 5 0 21 -34 135 -40
135 -4 0 -12 -26 -19 -57z"/>
<path d="M5637 5243 c-4 -3 -7 -46 -7 -95 l0 -88 48 0 c58 0 88 19 100 64 21
74 -17 126 -93 126 -23 0 -45 -3 -48 -7z"/>
<path d="M6780 5155 l0 -95 50 0 c69 0 100 30 100 95 0 65 -31 95 -100 95
l-50 0 0 -95z"/>
<path d="M9368 5053 c-9 -37 -14 -71 -12 -75 6 -9 58 -11 66 -2 6 5 -19 109
-31 132 -4 7 -14 -16 -23 -55z"/>
<path d="M9900 5155 l0 -95 48 0 c57 0 89 20 100 63 20 74 -21 127 -99 127
l-49 0 0 -95z"/>
<path d="M10521 5053 c-16 -82 -16 -83 24 -83 19 0 35 2 35 5 0 21 -34 135
-40 135 -4 0 -12 -26 -19 -57z"/>
<path d="M6235 3471 c-55 -25 -93 -66 -123 -130 -21 -45 -24 -64 -20 -125 6
-82 30 -138 81 -183 112 -98 291 -76 367 44 94 148 32 356 -119 401 -57 17
-140 14 -186 -7z m156 -160 c50 -50 36 -150 -25 -180 -69 -33 -133 52 -107
141 21 70 82 88 132 39z"/>
<path d="M5635 3468 c-10 -27 -65 -192 -65 -195 0 -2 41 -3 90 -3 l90 0 0
-375 0 -375 120 0 120 0 -2 478 -3 477 -173 3 c-132 2 -174 0 -177 -10z"/>
<path d="M6561 3006 c-160 -261 -291 -477 -291 -480 0 -4 44 -6 99 -6 l98 0
288 473 c159 259 290 475 292 480 2 4 -41 7 -95 7 l-100 0 -291 -474z"/>
<path d="M6929 3023 c-55 -9 -131 -66 -161 -120 -112 -199 52 -441 266 -393
69 15 127 59 160 120 72 133 26 310 -96 369 -44 21 -123 32 -169 24z m110
-179 c32 -40 29 -126 -4 -159 -15 -16 -36 -25 -55 -25 -51 0 -80 38 -80 103 0
73 26 107 80 107 30 0 43 -6 59 -26z"/>
<path d="M3470 2350 l-135 -129 85 -86 c46 -47 90 -85 96 -85 6 0 19 9 29 20
18 20 18 22 -44 84 l-62 63 32 28 33 27 52 -58 52 -59 23 20 c13 11 26 21 28
23 3 1 -21 28 -52 60 l-57 58 30 29 30 29 60 -59 60 -59 22 21 21 22 -82 90
c-46 50 -84 91 -85 91 0 -1 -62 -59 -136 -130z"/>
<path d="M8992 2282 l-92 -87 127 -133 128 -132 30 25 30 25 -50 50 -49 50 54
55 c53 53 53 55 35 75 -10 11 -22 20 -27 20 -5 0 -31 -21 -59 -47 l-50 -47
-32 33 -32 32 64 60 65 60 -25 24 -24 24 -93 -87z"/>
<path d="M3756 2068 c-65 -77 -114 -143 -110 -148 28 -25 151 -127 160 -133 6
-3 21 4 33 17 l23 24 -61 50 -61 51 95 113 c52 62 95 116 95 120 0 3 -13 16
-28 27 l-28 20 -118 -141z"/>
<path d="M8647 1995 l-28 -25 111 -145 c71 -92 116 -143 123 -138 7 3 49 36
95 71 l83 65 -22 23 c-25 27 -18 29 -103 -33 l-44 -33 -91 120 c-51 66 -93
120 -94 120 -1 0 -15 -12 -30 -25z"/>
<path d="M4051 1829 c-56 -83 -101 -152 -99 -153 1 -2 47 -34 102 -71 l98 -68
19 24 c10 13 19 26 19 29 0 3 -32 27 -70 53 l-70 48 20 30 c12 16 26 29 31 29
6 0 37 -18 70 -41 33 -22 62 -39 63 -37 39 51 40 48 -27 95 -34 24 -63 47 -64
51 -2 4 7 19 20 35 l22 27 69 -46 69 -46 18 23 c10 13 19 27 19 30 0 5 -195
139 -203 139 -2 0 -49 -68 -106 -151z"/>
<path d="M8410 1834 c-47 -30 -91 -58 -99 -63 -11 -7 7 -42 83 -165 62 -100
102 -154 109 -150 11 6 188 115 195 120 2 1 -4 16 -12 33 l-16 31 -71 -45
c-38 -25 -74 -43 -80 -40 -5 4 -16 19 -24 35 l-15 28 65 41 c36 23 65 45 65
50 0 5 -8 18 -17 30 l-18 21 -63 -41 c-34 -22 -67 -37 -72 -34 -6 4 -17 19
-25 35 l-14 28 69 42 c39 23 70 45 70 49 0 11 -31 51 -38 50 -4 0 -45 -25 -92
-55z"/>
<path d="M4450 1776 c0 -3 -13 -88 -30 -189 -16 -102 -30 -187 -30 -190 0 -2
18 -12 40 -22 l40 -18 52 49 c234 215 232 214 212 229 -45 34 -52 31 -155 -71
-55 -54 -99 -94 -99 -88 0 5 11 68 25 139 13 71 24 130 22 131 -7 5 -67 34
-72 34 -3 0 -5 -2 -5 -4z"/>
<path d="M8045 1638 c-71 -39 -99 -102 -71 -157 26 -50 63 -63 156 -55 71 6
80 5 86 -11 17 -44 -44 -77 -102 -56 -31 11 -38 11 -55 -5 -27 -25 -24 -40 15
-58 76 -36 175 -4 209 67 24 48 15 88 -25 122 -29 24 -36 26 -122 23 -81 -3
-91 -1 -94 15 -9 43 60 73 108 47 15 -8 23 -5 40 17 l20 26 -27 19 c-31 20
-106 24 -138 6z"/>
<path d="M4821 1394 c-68 -80 -119 -149 -115 -153 5 -4 21 -12 36 -19 24 -10
29 -8 53 20 l26 31 62 -25 62 -24 -3 -40 c-3 -37 -1 -40 33 -53 20 -7 39 -11
41 -8 4 4 23 279 24 347 0 33 -4 37 -37 49 -21 8 -43 16 -48 18 -6 2 -66 -62
-134 -143z m134 -40 c-5 -44 -10 -54 -22 -50 -8 3 -26 9 -39 12 -13 3 -24 8
-24 11 0 14 85 104 88 94 2 -7 1 -37 -3 -67z"/>
<path d="M7608 1453 c-38 -14 -68 -29 -68 -33 0 -13 112 -325 119 -333 6 -6
71 10 71 17 0 2 -9 29 -20 61 -21 62 -20 70 9 78 14 3 37 -11 76 -46 56 -50
57 -50 96 -38 34 10 54 30 32 31 -5 1 -32 23 -62 49 -53 48 -54 49 -37 72 30
44 13 119 -36 153 -33 23 -103 19 -180 -11z m140 -55 c23 -23 14 -57 -20 -78
-50 -30 -64 -26 -81 24 l-15 45 26 10 c38 13 76 13 90 -1z"/>
<path d="M5225 1415 c-3 -8 -7 -22 -10 -30 -3 -11 8 -19 40 -27 25 -7 45 -15
45 -18 0 -3 -18 -68 -40 -144 -22 -77 -39 -140 -37 -141 1 -1 17 -7 35 -13 39
-13 35 -22 83 156 37 135 27 125 103 106 21 -5 25 -1 31 26 4 17 5 33 3 34 -6
5 -227 66 -238 66 -6 0 -13 -7 -15 -15z"/>
<path d="M7338 1373 c-23 -6 -23 -21 7 -147 27 -113 24 -145 -14 -165 -29 -16
-56 -13 -81 7 -16 13 -29 48 -50 136 -16 65 -31 120 -33 123 -3 3 -19 2 -36
-2 -21 -4 -31 -13 -31 -25 0 -35 51 -235 66 -258 49 -75 165 -83 237 -14 46
44 50 81 21 206 -14 61 -27 119 -30 129 -5 17 -21 19 -56 10z"/>
<path d="M5605 1308 c-3 -13 -18 -93 -33 -178 -25 -138 -27 -156 -13 -161 28
-10 222 -41 227 -36 3 2 6 17 7 33 2 29 1 29 -80 43 l-82 14 6 31 c9 48 16 51
93 37 39 -7 73 -11 75 -9 2 2 5 17 7 33 l3 30 -78 14 -79 13 7 37 c4 20 8 38
11 40 2 2 39 -3 84 -11 44 -8 82 -12 85 -10 3 3 5 18 5 33 0 32 4 30 -125 54
-105 20 -114 19 -120 -7z"/>
<path d="M6706 1265 c-114 -41 -160 -182 -92 -285 35 -53 90 -80 161 -80 116
0 195 77 195 188 0 74 -34 130 -99 164 -59 31 -105 35 -165 13z m118 -69 c45
-19 66 -52 66 -103 0 -82 -40 -123 -119 -123 -30 0 -49 7 -72 28 -60 54 -47
167 24 197 41 18 60 18 101 1z"/>
<path d="M6140 1256 c0 -3 25 -50 55 -104 54 -97 55 -100 55 -180 0 -79 1 -82
25 -88 48 -12 55 -1 55 82 0 83 -3 76 94 227 l37 57 -46 0 c-43 0 -47 -2 -73
-46 -50 -85 -46 -84 -83 -13 -33 62 -35 64 -76 67 -24 2 -43 1 -43 -2z"/>
<path d="M0 5030 c0 -711 2 -1291 4 -1289 2 2 112 293 245 646 l240 641 -240
644 c-132 353 -242 645 -245 647 -2 2 -4 -578 -4 -1289z"/>
<path d="M12553 5677 l-243 -648 243 -646 242 -647 3 647 c1 356 1 938 0 1294
l-3 648 -242 -648z"/>
<path d="M0 1865 l0 -1865 6400 0 6400 0 0 1865 0 1865 -669 0 -669 0 -37
-112 c-204 -616 -530 -1196 -966 -1719 -134 -161 -490 -517 -648 -649 -896
-743 -1920 -1153 -3075 -1231 -196 -13 -648 -7 -826 11 -1105 111 -2073 515
-2920 1220 -161 134 -516 489 -649 649 -337 405 -603 833 -799 1286 -68 158
-157 391 -187 493 l-16 52 -669 0 -670 0 0 -1865z"/>
</g>
</svg>
